name C:\Users\antoi\Documents\MyRepositories\upper-imu-dc\Results\main_tracking\Case_76\FLX01_angularVelocities_groundFrame.mot
datacolumns 4
datarows 82
range 2.01000000 2.82000000
endheader 
time	radius_imu_x	radius_imu_y	radius_imu_z	
          2.01000000	         -0.68642638	         -0.44001645	          1.05688769	
          2.02000000	         -0.68752916	         -0.45007482	          1.05010968	
          2.03000000	         -0.68741172	         -0.45828368	          1.04330214	
          2.04000000	         -0.68592118	         -0.46457608	          1.03653983	
          2.05000000	         -0.68296862	         -0.46893176	          1.02988761	
          2.06000000	         -0.67854237	         -0.47138405	          1.02340049	
          2.07000000	         -0.67272117	         -0.47202944	          1.01712150	
          2.08000000	         -0.66568231	         -0.47103790	          1.01107857	
          2.09000000	         -0.65769987	         -0.46866054	          1.00528226	
          2.10000000	         -0.64913018	         -0.46523003	          0.99972517	
          2.11000000	         -0.64038443	         -0.46115029	          0.99438345	
          2.12000000	         -0.63189004	         -0.45687340	          0.98922074	
          2.13000000	         -0.62404529	         -0.45286519	          0.98419427	
          2.14000000	         -0.61717429	         -0.44956527	          0.97926314	
          2.15000000	         -0.61149280	         -0.44735053	          0.97439683	
          2.16000000	         -0.60709363	         -0.44651081	          0.96958146	
          2.17000000	         -0.60395296	         -0.44723915	          0.96482112	
          2.18000000	         -0.60195111	         -0.44963344	          0.96013428	
          2.19000000	         -0.60089889	         -0.45370350	          0.95554656	
          2.20000000	         -0.60056263	         -0.45937955	          0.95108215	
          2.21000000	         -0.60068522	         -0.46652149	          0.94675599	
          2.22000000	         -0.60100462	         -0.47493184	          0.94256789	
          2.23000000	         -0.60127185	         -0.48437555	          0.93849903	
          2.24000000	         -0.60126805	         -0.49460635	          0.93451062	
          2.25000000	         -0.60081684	         -0.50539442	          0.93054437	
          2.26000000	         -0.59978886	         -0.51654839	          0.92652434	
          2.27000000	         -0.59809818	         -0.52792709	          0.92235950	
          2.28000000	         -0.59569225	         -0.53943825	          0.91794725	
          2.29000000	         -0.59253788	         -0.55102508	          0.91317853	
          2.30000000	         -0.58860671	         -0.56264378	          0.90794491	
          2.31000000	         -0.58386300	         -0.57423705	          0.90214706	
          2.32000000	         -0.57825595	         -0.58570926	          0.89570375	
          2.33000000	         -0.57171859	         -0.59690954	          0.88855972	
          2.34000000	         -0.56417472	         -0.60762850	          0.88069089	
          2.35000000	         -0.55555291	         -0.61761098	          0.87210617	
          2.36000000	         -0.54580337	         -0.62658180	          0.86284577	
          2.37000000	         -0.53491322	         -0.63427691	          0.85297686	
          2.38000000	         -0.52291788	         -0.64047311	          0.84258782	
          2.39000000	         -0.50990774	         -0.64501042	          0.83178182	
          2.40000000	         -0.49602951	         -0.64780349	          0.82067072	
          2.41000000	         -0.48148133	         -0.64884115	          0.80936940	
          2.42000000	         -0.46650230	         -0.64817714	          0.79799101	
          2.43000000	         -0.45135786	         -0.64591580	          0.78664324	
          2.44000000	         -0.43632215	         -0.64219571	          0.77542607	
          2.45000000	         -0.42165928	         -0.63717272	          0.76443091	
          2.46000000	         -0.40760470	         -0.63100337	          0.75374123	
          2.47000000	         -0.39434885	         -0.62383009	          0.74343387	
          2.48000000	         -0.38202483	         -0.61577035	          0.73358021	
          2.49000000	         -0.37070245	         -0.60691289	          0.72424632	
          2.50000000	         -0.36039008	         -0.59732271	          0.71549183	
          2.51000000	         -0.35104371	         -0.58705297	          0.70736777	
          2.52000000	         -0.34258119	         -0.57615944	          0.69991388	
          2.53000000	         -0.33489906	         -0.56471291	          0.69315549	
          2.54000000	         -0.32788952	         -0.55280708	          0.68710068	
          2.55000000	         -0.32145518	         -0.54056129	          0.68173769	
          2.56000000	         -0.31551935	         -0.52811805	          0.67703386	
          2.57000000	         -0.31003122	         -0.51563665	          0.67293656	
          2.58000000	         -0.30496591	         -0.50328516	          0.66937618	
          2.59000000	         -0.30031990	         -0.49123163	          0.66627157	
          2.60000000	         -0.29610325	         -0.47963511	          0.66353738	
          2.61000000	         -0.29233015	         -0.46863642	          0.66109218	
          2.62000000	         -0.28900960	         -0.45834931	          0.65886578	
          2.63000000	         -0.28613760	         -0.44885282	          0.65680412	
          2.64000000	         -0.28369188	         -0.44018627	          0.65487086	
          2.65000000	         -0.28162917	         -0.43234842	          0.65304557	
          2.66000000	         -0.27988491	         -0.42530154	          0.65131969	
          2.67000000	         -0.27837483	         -0.41897944	          0.64969167	
          2.68000000	         -0.27699794	         -0.41329713	          0.64816252	
          2.69000000	         -0.27564061	         -0.40815978	          0.64673285	
          2.70000000	         -0.27418187	         -0.40346972	          0.64540129	
          2.71000000	         -0.27249966	         -0.39913242	          0.64416388	
          2.72000000	         -0.27047761	         -0.39506255	          0.64301340	
          2.73000000	         -0.26801160	         -0.39118939	          0.64193798	
          2.74000000	         -0.26501518	         -0.38745969	          0.64091859	
          2.75000000	         -0.26142327	         -0.38383565	          0.63992570	
          2.76000000	         -0.25719414	         -0.38028863	          0.63891607	
          2.77000000	         -0.25230940	         -0.37679249	          0.63783225	
          2.78000000	         -0.24677212	         -0.37332072	          0.63660639	
          2.79000000	         -0.24060640	         -0.36984294	          0.63516072	
          2.80000000	         -0.23385668	         -0.36632093	          0.63340313	
          2.81000000	         -0.22657954	         -0.36271904	          0.63124062	
          2.82000000	         -0.21883872	         -0.35900790	          0.62858577	
